<svg width="16" height="14" viewBox="0 0 16 14" fill="none" xmlns="http://www.w3.org/2000/svg">
<path d="M0.5 4.30002C0.499908 3.7618 0.607097 3.22896 0.815302 2.73263C1.02351 2.23631 1.32855 1.78647 1.71261 1.40939C2.09667 1.03232 2.55203 0.73558 3.05209 0.536515C3.55215 0.337451 4.08687 0.240056 4.625 0.250023C5.26172 0.246642 5.89189 0.378625 6.47374 0.637226C7.05559 0.895827 7.57584 1.27514 8 1.75002C8.42416 1.27514 8.94441 0.895827 9.52626 0.637226C10.1081 0.378625 10.7383 0.246642 11.375 0.250023C11.9131 0.240056 12.4479 0.337451 12.9479 0.536515C13.448 0.73558 13.9033 1.03232 14.2874 1.40939C14.6714 1.78647 14.9765 2.23631 15.1847 2.73263C15.3929 3.22896 15.5001 3.7618 15.5 4.30002C15.5 8.31702 10.7157 11.35 8 13.75C5.29025 11.3298 0.5 8.32002 0.5 4.30002Z" fill="black"/>
</svg>
